<?xml version="1.0" encoding="UTF-8"?>
<svg version="1.1" xmlns="http://www.w3.org/2000/svg" width="1024" height="1024">
<path d="M0 0 C337.92 0 675.84 0 1024 0 C1024 337.92 1024 675.84 1024 1024 C686.08 1024 348.16 1024 0 1024 C0 686.08 0 348.16 0 0 Z " fill="none" transform="translate(0,0)"/>
<path d="M0 0 C0.85880313 -0.00205263 1.71760627 -0.00410527 2.60243374 -0.0062201 C5.51186668 -0.01192402 8.42125279 -0.0104287 11.33069038 -0.00901413 C13.42496487 -0.01159582 15.51923886 -0.01460843 17.61351216 -0.01801753 C23.39327296 -0.02611374 29.17302136 -0.02787855 34.95278716 -0.028615 C41.1764756 -0.03046099 47.40015754 -0.03800597 53.62384224 -0.04475021 C67.95395936 -0.05906191 82.28407243 -0.06486229 96.61419519 -0.06944216 C103.69175864 -0.07177636 110.76932129 -0.0753788 117.84688411 -0.07913754 C142.0623861 -0.09197385 166.27788763 -0.10269342 190.49339294 -0.10614014 C192.01406974 -0.10636177 193.53474653 -0.10658356 195.05542333 -0.10680549 C196.57982286 -0.10702613 198.1042224 -0.10724661 199.62862194 -0.10746694 C202.68695506 -0.1079095 205.74528817 -0.10835661 208.80362129 -0.10880661 C209.56191257 -0.108916 210.32020385 -0.10902539 211.10147365 -0.1091381 C235.69908121 -0.11277019 260.29665931 -0.12869556 284.89425558 -0.15199697 C310.88540494 -0.17657361 336.87653747 -0.19031195 362.86769879 -0.19150805 C365.71891984 -0.19167952 368.57014088 -0.19189495 371.42136192 -0.19214249 C372.12343967 -0.19219826 372.82551743 -0.19225402 373.54887026 -0.19231148 C384.86405301 -0.19346377 396.17920563 -0.20450072 407.4943782 -0.21902954 C418.85984126 -0.233371 430.22525462 -0.23639162 441.59072815 -0.22858956 C447.75213635 -0.22466877 453.9134428 -0.22568202 460.07483864 -0.23964691 C465.70894894 -0.25230044 471.34288013 -0.25126417 476.97698988 -0.2390562 C479.02140397 -0.23708428 481.06583037 -0.24024576 483.11022709 -0.24890056 C485.87744749 -0.25987895 488.64402296 -0.25258711 491.41122437 -0.24050903 C492.2151521 -0.24810423 493.01907983 -0.25569942 493.84736902 -0.26352477 C497.0513561 -0.23308731 499.43219367 -0.07719209 502.29735386 1.41990209 C505.0964296 4.54270483 505.01332047 8.14770833 504.83145332 12.13142776 C503.97904943 17.17909432 502.69219314 22.08826338 501.37832832 27.02986526 C501.00212665 28.49060085 500.62731533 29.95169513 500.25380135 31.41312027 C499.25412485 35.30910076 498.23582919 39.19998627 497.21395683 43.0901947 C496.15217993 47.14629942 495.10842429 51.20703338 494.06314278 55.26741409 C492.41013371 61.68058227 490.7482926 68.0913829 489.07803535 74.50008011 C486.5731629 84.11208611 484.10396235 93.73303285 481.64779854 103.35759354 C481.01962626 105.81629387 480.38898391 108.2743489 479.75772285 110.73225784 C477.28651536 120.36420428 474.85701775 130.0060377 472.45254707 139.65486526 C472.16193901 140.82058563 471.87133095 141.986306 471.57191658 143.18735123 C470.15473727 148.87501728 468.74087431 154.56347907 467.33218575 160.25325394 C464.88062848 170.12958605 462.37218046 179.97749769 459.61027718 189.77191544 C457.61656176 196.846898 455.77017324 203.95657791 453.95099068 211.07817459 C453.3751841 213.32982341 452.79535669 215.5804111 452.21499825 217.83089066 C450.46214146 224.64364354 448.73657625 231.45852612 447.12832832 238.30720901 C442.762874 256.83688576 437.67048745 270.98278635 420.83535957 281.62361526 C412.33277062 285.89149476 404.84127731 286.56643904 395.37776375 286.52583694 C394.02560891 286.53073263 392.67345825 286.53692557 391.32131463 286.54429483 C387.62503639 286.56063172 383.9289723 286.55838928 380.23267066 286.55291986 C376.23867064 286.55024191 372.24472671 286.5647958 368.25074959 286.57701492 C360.43332872 286.59803895 352.61598207 286.60261151 344.79853626 286.60082704 C338.44205575 286.59951787 332.08559833 286.60333145 325.72912216 286.61075211 C323.89604531 286.61285137 322.06296845 286.61494897 320.2298916 286.61704493 C319.3174296 286.61808845 318.4049676 286.61913198 317.46485523 286.62020713 C300.21903488 286.63909734 282.97325709 286.63806306 265.72743068 286.6312378 C249.96418475 286.62566341 234.20110141 286.64648552 218.43789347 286.67959827 C202.23767883 286.71336389 186.03754201 286.72850002 169.83729154 286.72388124 C160.74793068 286.72163944 151.65872007 286.72683742 142.56938934 286.75177383 C134.83090509 286.77282409 127.09265348 286.77634212 119.35415956 286.75747424 C115.40926049 286.74833921 111.46479475 286.74710417 107.51992989 286.7678299 C103.9018127 286.78662798 100.28448105 286.78193931 96.66639296 286.75928408 C94.7519935 286.75316241 92.83756274 286.77141948 90.92325181 286.7908206 C78.07646953 286.6601796 68.04138258 281.99019854 58.83145332 273.13142776 C50.66547588 264.30715655 47.41174194 254.50287588 44.58145332 242.99861526 C44.28657524 241.82870544 43.99169716 240.65879562 43.68788338 239.45343399 C42.89300783 236.29427989 42.10517537 233.13347329 41.3204174 229.97179413 C40.49690963 226.66174632 39.66404431 223.35405679 38.83169746 220.04622269 C37.81521311 216.00444068 36.79947526 211.96247909 35.78776741 207.91949844 C32.90578037 196.40286699 29.97399356 184.8992821 27.02627754 173.39931107 C23.54284537 159.80555953 20.06133375 146.21140566 16.70425606 132.58577347 C15.32952949 127.02729383 13.86896007 121.49429487 12.38742256 115.96333694 C9.54263092 105.33267785 6.8310109 94.66719295 4.10478401 84.00564957 C2.69296027 78.48671347 1.27506001 72.96936991 -0.14755058 67.45320511 C-1.79355111 61.07065484 -3.43381221 54.68665372 -5.06888199 48.30129433 C-5.99007412 44.70465142 -6.91380095 41.10870134 -7.84347343 37.51424026 C-8.73124159 34.08132398 -9.61204235 30.64669109 -10.48785782 27.21070671 C-10.97338923 25.3133354 -11.46612217 23.41781155 -11.95902824 21.52234268 C-12.39640564 19.79876289 -12.39640564 19.79876289 -12.84261894 18.04036331 C-13.09971138 17.04006592 -13.35680382 16.03976852 -13.62168694 15.00915909 C-14.49894944 10.39275455 -14.95195862 7.30654568 -12.29354668 3.31892776 C-8.53241375 -0.55282672 -5.11407034 -0.01119106 0 0 Z " fill="#FE8F44" transform="translate(266.16854667663574,442.8685722351074)"/>
<path d="M0 0 C5.53746008 4.99416211 9.52526787 10.42476908 10.3125 18.01171875 C10.76587597 30.2103659 6.05879761 37.36780079 -0.71191406 47.13769531 C-2.15827799 49.22883709 -3.59145545 51.32867199 -5.0234375 53.4296875 C-11.54145522 62.98741904 -18.09926913 72.51798461 -24.65722656 82.04833984 C-27.39574421 86.02865077 -30.13253977 90.0101466 -32.86889648 93.99194336 C-35.19516724 97.37662791 -37.52346125 100.75988995 -39.85546875 104.140625 C-45.30765789 112.04868768 -50.68992603 119.99526163 -56 128 C-62.93 138.395 -62.93 138.395 -70 149 C36.92 148.505 36.92 148.505 146 148 C140.10577301 139.42657892 134.21196445 130.85517975 128.28515625 122.3046875 C126.27238602 119.3974495 124.27044567 116.48287915 122.27001953 113.56713867 C117.25164114 106.25288435 112.1959617 98.96539714 107.125 91.6875 C100.65805185 82.39793612 94.20751114 73.09893833 87.85742188 63.72900391 C86.0906788 61.13322919 84.31118738 58.54650131 82.52932739 55.96109009 C80.87646377 53.55630346 79.23537505 51.14362074 77.59637451 48.72937012 C76.79365601 47.55170734 75.98652456 46.3770382 75.17462158 45.20568848 C69.23343318 36.62476248 63.6439421 27.84846317 65 17 C67.45909561 8.73690992 70.93726341 2.58763653 78.5625 -1.8125 C85.63789046 -5.60157392 93.82707508 -6.49457262 101.609375 -4.24609375 C108.47224715 -1.30979778 113.01631985 2.59094612 117.1875 8.8125 C117.57131836 9.3801709 117.95513672 9.9478418 118.35058594 10.53271484 C119.57566763 12.34953971 120.78887186 14.17384964 122 16 C122.78232657 17.17332748 123.56487761 18.34650532 124.34765625 19.51953125 C125.56303131 21.34259384 126.77741086 23.16628909 127.98925781 24.99169922 C133.5701078 33.38851585 139.2909065 41.69011675 145 50 C145.48645996 50.70833984 145.97291992 51.41667969 146.47412109 52.14648438 C150.51258736 58.02620091 154.55552374 63.90283594 158.6015625 69.77734375 C161.40497445 73.84886647 164.20387646 77.9234688 167 82 C167.48758789 82.71075684 167.97517578 83.42151367 168.47753906 84.15380859 C172.52826444 90.06445542 176.55948078 95.98825028 180.58465576 101.9163208 C182.22505381 104.33132572 183.86674288 106.74545131 185.50830078 109.15966797 C188.81673447 114.02693346 192.11932643 118.89812819 195.41900635 123.77133179 C196.76501932 125.75762787 198.11263659 127.74283775 199.46185303 129.72695923 C201.37349285 132.53898358 203.2792085 135.3549344 205.18359375 138.171875 C205.77036392 139.03235947 206.35713409 139.89284393 206.96168518 140.77940369 C207.49438522 141.56988602 208.02708527 142.36036835 208.57592773 143.17480469 C209.04586655 143.86789734 209.51580536 144.56098999 209.99998474 145.27508545 C211 147 211 147 211 149 C212.08613083 148.99111755 213.17226166 148.98223511 214.29130554 148.9730835 C224.57378195 148.89166791 234.85619216 148.8318772 245.13891888 148.79275131 C250.42421183 148.77195942 255.70924263 148.74379668 260.99438477 148.69824219 C266.10374813 148.65448307 271.2128608 148.63079989 276.32239723 148.62049103 C278.26266228 148.61315327 280.20291507 148.59882574 282.14307213 148.57707977 C302.03122517 148.36322069 317.6341142 152.18640529 332.4921875 166.3671875 C342.91259151 177.3069886 348.73506609 190.81203261 349.06420898 205.95385742 C348.5375357 219.16597362 344.93305842 231.74075032 341.6875 244.5 C341.0984591 246.85778584 340.51056073 249.21585743 339.92382812 251.57421875 C337.39287476 261.71442964 334.80083558 271.83495294 332.07983398 281.92578125 C329.34237987 292.17204563 326.79475369 302.47005075 324.1875 312.75 C322.99430597 317.45333267 321.80032331 322.1564639 320.60546875 326.859375 C320.30889374 328.02738647 320.01231873 329.19539795 319.70675659 330.39880371 C317.91442981 337.44518484 316.09604764 344.48428243 314.25949097 351.51925659 C311.67149246 361.43529093 309.15632971 371.35974733 306.81149292 381.33615112 C304.6732602 390.43165785 302.41373973 399.49592064 300.14282227 408.55908203 C299.43263646 411.39441713 298.72500161 414.23038083 298.01757812 417.06640625 C295.72742974 426.23013452 293.39086992 435.37608388 290.93188477 444.49609375 C289.96780367 448.12105886 289.05013956 451.75551738 288.140625 455.39453125 C278.73458916 492.60134194 278.73458916 492.60134194 267 507 C266.34 507 265.68 507 265 507 C264.77957031 507.54140625 264.55914063 508.0828125 264.33203125 508.640625 C255.87397745 523.62204581 237.23524101 532.88663399 221.51619554 537.77193886 C213.41630923 540.01104671 205.86497037 540.4262658 197.4911499 540.38768005 C196.06088636 540.39186175 194.63062615 540.39734382 193.20037198 540.40399987 C189.30196067 540.418364 185.40376239 540.41423827 181.50533986 540.40683305 C177.28841663 540.40208105 173.07153815 540.41462922 168.85462952 540.42485046 C160.60513584 540.44200503 152.35571845 540.44288531 144.10621157 540.43763756 C137.39657756 540.43358784 130.68696601 540.43504893 123.97733307 540.44038582 C123.02052816 540.44113424 122.06372326 540.44188266 121.07792427 540.44265376 C119.13383537 540.44418533 117.18974648 540.44572368 115.24565759 540.44726873 C97.03303817 540.46098207 78.82046175 540.45556463 60.60784331 540.44408352 C43.97130007 540.43415575 27.33486813 540.44708601 10.69834206 540.47101771 C-6.41051441 540.49544216 -23.51931912 540.50500816 -40.62819266 540.49836498 C-50.22286703 540.49487976 -59.81745588 540.4970585 -69.412117 540.51461601 C-77.58114545 540.52938003 -85.75002817 540.52991894 -93.91905388 540.5125451 C-98.08110834 540.50406654 -102.24290295 540.50180781 -106.40494347 540.51719666 C-110.22597741 540.53114884 -114.0465315 540.52614757 -117.86753842 540.50695742 C-119.88122435 540.50148273 -121.89493537 540.51538063 -123.90857339 540.53031152 C-136.14588727 540.43292175 -148.52906694 538.08905074 -159.375 532.1875 C-160.03435547 531.84275635 -160.69371094 531.4980127 -161.37304688 531.14282227 C-166.90099175 528.19138157 -172.06618835 524.87018196 -177 521 C-177.6703125 520.49339844 -178.340625 519.98679687 -179.03125 519.46484375 C-206.44917625 497.32378029 -211.68976755 458.8856074 -219.58496094 426.74951172 C-221.87972763 417.41470703 -224.20403772 408.08725034 -226.53115845 398.76046753 C-227.29031574 395.71402382 -228.04610128 392.66675888 -228.80151367 389.61938477 C-230.89133759 381.21598509 -233.01290564 372.83303014 -235.3828125 364.50390625 C-238.96106928 351.88242363 -241.9604369 339.10575018 -245.06359863 326.36108398 C-246.38339697 320.94174076 -247.7068114 315.52328411 -249.03245354 310.10536766 C-249.48577599 308.24998572 -249.93697082 306.39408433 -250.38807678 304.53816223 C-253.15112352 293.22753545 -256.15718554 281.98961687 -259.28173828 270.77368164 C-261.62304109 262.34355906 -263.76605333 253.91174617 -265.59716797 245.35644531 C-266.64076565 240.50968419 -267.82443725 235.72149774 -269.125 230.9375 C-269.45242188 229.71546875 -269.77984375 228.4934375 -270.1171875 227.234375 C-270.62204703 225.38471266 -271.1397939 223.53820892 -271.6953125 221.703125 C-275.70358847 207.13784048 -273.376118 191.81725896 -266.203125 178.71875 C-257.32296872 164.65258245 -245.15774401 154.5057577 -229 150 C-224.10356257 148.98079584 -219.37546221 148.91398339 -214.39941406 149.0168457 C-212.65286094 149.042923 -210.90629866 149.06839241 -209.159729 149.09333801 C-208.24044868 149.1077424 -207.32116837 149.1221468 -206.37403107 149.13698769 C-200.45104623 149.21737294 -194.52744451 149.22925954 -188.60400772 149.25208759 C-183.40898529 149.27596278 -178.21655304 149.32503378 -173.02246094 149.4284668 C-167.98309389 149.52745728 -162.94742292 149.55746458 -157.9071579 149.54152489 C-155.99491207 149.54764636 -154.08257117 149.57835823 -152.17115021 149.63485146 C-142.18798327 150.23319509 -142.18798327 150.23319509 -133.23646545 146.63903236 C-129.6914035 142.86510496 -127.3790626 138.56554642 -125 134 C-123.79427139 132.17311547 -122.5699679 130.35807114 -121.3125 128.56640625 C-120.20589002 126.90005751 -119.10166199 125.2321241 -118 123.5625 C-116.89589359 121.89709547 -115.79172524 120.23173199 -114.6875 118.56640625 C-114.10983887 117.69395264 -113.53217773 116.82149902 -112.93701172 115.92260742 C-106.07730021 105.57251837 -99.16233708 95.26172841 -92.18475342 84.99075317 C-85.20251508 74.71131961 -78.25276923 64.41221603 -71.375 54.0625 C-66.68923076 47.01330213 -61.98668793 39.97932108 -57.15429688 33.02954102 C-54.48748808 29.19027312 -51.88118114 25.31725327 -49.30859375 21.4140625 C-48.65769775 20.4358252 -48.00680176 19.45758789 -47.33618164 18.44970703 C-46.0686903 16.54334199 -44.81066523 14.6306338 -43.56420898 12.71044922 C-38.86905564 5.68596213 -33.53232068 -0.94762837 -25.6875 -4.5 C-15.99752261 -5.81389524 -8.20642534 -5.87795863 0 0 Z M-221 206 C-224.20399313 212.40798625 -219.45401324 223.81080962 -217.7890625 230.33203125 C-217.461117 231.63451594 -217.13371215 232.93713686 -216.80680847 234.23988342 C-215.9334447 237.71438219 -215.05298511 241.1870452 -214.17108536 244.65938568 C-213.25531915 248.27008371 -212.34600888 251.8824061 -211.4362793 255.49462891 C-210.33785695 259.85446947 -209.23881785 264.21415016 -208.13670349 268.57305908 C-205.96295572 277.17070291 -203.80459636 285.77194353 -201.66796875 294.37890625 C-201.4193811 295.37922379 -201.17079346 296.37954132 -200.91467285 297.41017151 C-199.07835169 304.80039381 -199.07835169 304.80039381 -198.16558838 308.48989868 C-195.85229617 317.83452117 -193.4405101 327.13824989 -190.83657837 336.40631104 C-188.67358357 344.11723264 -186.66987148 351.86600861 -184.6875 359.625 C-184.29464736 361.15683274 -183.90174245 362.68865208 -183.50878906 364.22045898 C-181.36666072 372.58345752 -179.25577867 380.95360249 -177.17675781 389.33251953 C-176.0514501 393.86161626 -174.91590017 398.38810777 -173.77682495 402.91375732 C-172.67420484 407.29874436 -171.58205512 411.68617647 -170.49755859 416.07568359 C-169.11155443 421.67974629 -167.70465486 427.27828766 -166.28723145 432.8744812 C-165.72695966 435.10013493 -165.17317603 437.32743342 -164.62634277 439.556427 C-160.53082621 456.22499084 -156.6734169 470.51306645 -142 481 C-135.36939994 484.83281028 -129.29136185 488.11874403 -121.54467201 488.13701439 C-120.4041622 488.14208893 -119.26365239 488.14716347 -118.08858168 488.15239179 C-116.82995672 488.15288955 -115.57133176 488.15338731 -114.27456665 488.15390015 C-112.92830668 488.15791481 -111.58204792 488.16235304 -110.23579061 488.1671797 C-106.52795129 488.17915135 -102.82012498 488.18479506 -99.11227012 488.18936086 C-95.11611816 488.19531497 -91.11998178 488.20692556 -87.12384033 488.21765137 C-77.46680978 488.24218375 -67.80977407 488.25680581 -58.15272194 488.26971143 C-55.42441163 488.27342342 -52.69610183 488.27739667 -49.96779203 488.2814641 C-33.02169838 488.30670586 -16.07560393 488.3287569 0.87050438 488.34119225 C4.79664488 488.34412191 8.72278535 488.34708357 12.64892578 488.35009766 C14.11264844 488.35121673 14.11264844 488.35121673 15.60594125 488.35235842 C31.401214 488.3650025 47.19637394 488.39821184 62.991594 488.43989949 C79.21308051 488.48236054 95.43450935 488.50589229 111.65605128 488.51111281 C120.7617586 488.51452271 129.8672898 488.52622775 138.97294235 488.55921555 C146.73092111 488.58727489 154.48868765 488.59818977 162.24671321 488.58702008 C166.20183464 488.58184797 170.15651208 488.58462495 174.11156845 488.60948563 C177.74043997 488.63210436 181.36855183 488.63114207 184.99743779 488.61228175 C186.91537807 488.60819223 188.83332389 488.62853421 190.75114763 488.65006864 C203.87536228 488.53113333 214.58428596 484.16662107 224 475 C234.46911976 464.01869239 237.3835429 449.5384497 240.8125 435.25 C241.24525597 433.47900326 241.67902652 431.70825415 242.11376953 429.93774414 C242.9928071 426.35358616 243.867254 422.76836029 244.73779297 419.18212891 C246.42045357 412.25952667 248.14454105 405.34740518 249.87509155 398.43664551 C250.35589421 396.5139045 250.83388918 394.59046207 251.31176758 392.66699219 C253.12971241 385.37151987 255.02950517 378.10197168 256.97705078 370.84008789 C258.78005019 364.07173998 260.5135732 357.2856563 262.25 350.5 C262.45531342 349.69864624 262.66062683 348.89729248 262.87216187 348.07165527 C265.84617842 336.46264498 268.80298987 324.84927667 271.75390625 313.234375 C271.91768454 312.58986515 272.08146282 311.9453553 272.25020409 311.28131485 C273.95412789 304.57564496 275.6565273 297.86959821 277.35235119 291.16187477 C278.20813247 287.77700331 279.06476648 284.39234811 279.921875 281.0078125 C280.17598113 280.00430567 280.17598113 280.00430567 280.43522072 278.98052597 C282.58246175 270.50733533 284.76415638 262.04420574 286.98933411 253.59106445 C288.229863 248.87837842 289.46014647 244.16304107 290.6902771 239.44763184 C291.2659998 237.25448309 291.84728966 235.06278728 292.43447876 232.87268066 C293.24236351 229.85868841 294.03124837 226.84029124 294.81640625 223.8203125 C295.17445343 222.51681351 295.17445343 222.51681351 295.53973389 221.1869812 C296.89973943 215.86270278 297.90356896 210.31688692 296 205 C293.45680486 202.32460057 291.97745936 201.99773173 288.25164849 201.62280184 C286.69723554 201.60639601 285.14259579 201.60664168 283.58815098 201.61968327 C282.72733975 201.61502335 281.86652852 201.61036343 280.97963211 201.6055623 C278.07526321 201.59354592 275.1713564 201.60303327 272.26698303 201.61231995 C270.17169278 201.60814994 268.07640478 201.60267426 265.981121 201.59600013 C260.20776732 201.58148313 254.43455563 201.58580972 248.66119397 201.59316695 C242.44091948 201.59788089 236.2206765 201.58540455 230.00041199 201.57514954 C218.51375081 201.55891803 207.02715286 201.55652347 195.54048559 201.56145453 C184.92922596 201.56600767 174.31798325 201.56541758 163.70672417 201.55961418 C162.28460504 201.55885732 160.86248591 201.55810134 159.44036679 201.55734624 C157.29749088 201.55620107 155.15461498 201.5550512 153.01173908 201.55388699 C133.08302801 201.54317825 113.15432258 201.5384606 93.22560978 201.54635715 C92.47400692 201.54665433 91.72240407 201.5469515 90.94802537 201.54725768 C84.84406457 201.54970674 78.74010383 201.55231826 72.63614311 201.55494181 C48.82356407 201.56504529 25.01105553 201.55668846 1.19848633 201.53344727 C-25.54218476 201.50739059 -52.28281339 201.49452246 -79.02349764 201.50163502 C-81.87330122 201.5023511 -84.72310481 201.50302549 -87.5729084 201.50367546 C-88.27462573 201.50384527 -88.97634306 201.50401508 -89.69932455 201.50419003 C-100.30425974 201.50649558 -110.90915559 201.49850389 -121.51408195 201.48538399 C-133.57102504 201.47049452 -145.62785067 201.46997586 -157.68479984 201.4874549 C-163.84029386 201.49599909 -169.99561129 201.49803133 -176.15109634 201.48280334 C-181.78091794 201.46904783 -187.41041013 201.47360096 -193.04021222 201.49304258 C-195.08188986 201.49683112 -197.12359332 201.49379941 -199.16524815 201.48343093 C-201.93133795 201.47037729 -204.69627112 201.48173998 -207.46230984 201.49942875 C-208.26303886 201.48977824 -209.06376789 201.48012773 -209.88876143 201.47018477 C-214.88184174 201.53616872 -217.50990107 202.39839799 -221 206 Z " fill="#FE8F44" transform="translate(474,241)"/>
<path d="M0 0 C2 2 2 2 2.1875 5.4375 C2 9 2 9 1 12 C0.01 12.33 -0.98 12.66 -2 13 C-1.85915204 11.20793453 -1.71216299 9.41635083 -1.5625 7.625 C-1.48128906 6.62726563 -1.40007813 5.62953125 -1.31640625 4.6015625 C-1 2 -1 2 0 0 Z " fill="#FEF2E6" transform="translate(823,448)"/>
<path d="M0 0 C0 3.68553144 -0.8522582 5.03759752 -3 8 C-5.6875 9.8125 -5.6875 9.8125 -8 11 C-6.63629701 8.00779732 -5.05091917 5.70973471 -2.875 3.25 C-2.33617187 2.63640625 -1.79734375 2.0228125 -1.2421875 1.390625 C-0.62730469 0.70226562 -0.62730469 0.70226562 0 0 Z " fill="#FE802C" transform="translate(703,709)"/>
<path d="M0 0 C0.66 0.33 1.32 0.66 2 1 C0.98823563 4.40320742 0.35156418 5.75725331 -2.625 7.8125 C-3.40875 8.204375 -4.1925 8.59625 -5 9 C-3.7508258 5.54074837 -2.32472205 2.85306797 0 0 Z " fill="#FE8532" transform="translate(359,360)"/>
<path d="M0 0 C1.37432457 3.81756824 0.67975039 7.07255329 0 11 C-0.66 11 -1.32 11 -2 11 C-1.85892253 9.54119891 -1.71197585 8.08296449 -1.5625 6.625 C-1.48128906 5.81289063 -1.40007813 5.00078125 -1.31640625 4.1640625 C-1 2 -1 2 0 0 Z " fill="#FE8532" transform="translate(754,520)"/>
</svg>
